<?xml version="1.0" encoding="UTF-8"?>
<svg version="1.1" xmlns="http://www.w3.org/2000/svg" width="100" height="50">
<path d="M0 0 C33 0 66 0 100 0 C100 16.5 100 33 100 50 C67 50 34 50 0 50 C0 33.5 0 17 0 0 Z " fill="#FAFAFA" transform="translate(0,0)"/>
<path d="M0 0 C2 3 2 3 2 5 C3.32 4.67 4.64 4.34 6 4 C6.33 2.68 6.66 1.36 7 0 C7.33 1.65 7.66 3.3 8 5 C8.66 5 9.32 5 10 5 C10 3.35 10 1.7 10 0 C10.33 0.66 10.66 1.32 11 2 C11.66 2 12.32 2 13 2 C13 1.34 13 0.68 13 0 C15.375 0.25 15.375 0.25 18 1 C19.375 2.875 19.375 2.875 20 5 C19.67 5.99 19.34 6.98 19 8 C19.99 7.67 20.98 7.34 22 7 C22.33 7 22.66 7 23 7 C23.66 5.68 24.32 4.36 25 3 C25.7425 3.020625 26.485 3.04125 27.25 3.0625 C29.8958911 3.12018093 29.8958911 3.12018093 31.9375 2.4375 C34.78996209 1.83243228 37.14822793 2.47620513 40 3 C43.50374354 3.17091432 46.58269259 2.78109884 50 2 C50 2.66 50 3.32 50 4 C53.465 3.505 53.465 3.505 57 3 C57 3.66 57 4.32 57 5 C56.34 5.66 55.68 6.32 55 7 C55.5775 6.484375 56.155 5.96875 56.75 5.4375 C59 4 59 4 60.875 4.3125 C63.02532182 5.00819235 65.13965419 5.75353411 67.25 6.5625 C67.95640625 6.83191406 68.6628125 7.10132813 69.390625 7.37890625 C70.18726562 7.68634766 70.18726562 7.68634766 71 8 C68.108948 13.38554376 65.98069058 16.77462676 60 19 C61.32 19 62.64 19 64 19 C63.34 20.98 62.68 22.96 62 25 C62.66 25 63.32 25 64 25 C64.33 23.68 64.66 22.36 65 21 C65.66 21 66.32 21 67 21 C66.938125 20.236875 66.87625 19.47375 66.8125 18.6875 C67 16 67 16 68.375 14.1875 C70 13 70 13 72 13 C72.495 13.99 72.495 13.99 73 15 C77.95 15 82.9 15 88 15 C88.66 13.68 89.32 12.36 90 11 C93.33720472 10.14655092 96.53895471 10.1774895 100 10 C100 15.28 100 20.56 100 26 C67 26 34 26 0 26 C0 17.42 0 8.84 0 0 Z " fill="#FEFEFD" transform="translate(0,24)"/>
<path d="M0 0 C2.79259386 0.30354281 5.41174668 0.84428589 8.125 1.5625 C10.32833327 2.15148641 10.32833327 2.15148641 14 2 C14.66 2.99 15.32 3.98 16 5 C17.155 5 18.31 5 19.5 5 C20.655 5 21.81 5 23 5 C25 8 25 8 25 12 C24.34 12 23.68 12 23 12 C23 12.66 23 13.32 23 14 C21.68 14 20.36 14 19 14 C18.34 15.32 17.68 16.64 17 18 C16.01 18 15.02 18 14 18 C14 18.66 14 19.32 14 20 C14.66 20 15.32 20 16 20 C16.495 20.99 16.495 20.99 17 22 C19.97 21.67 22.94 21.34 26 21 C26.04254356 22.99954746 26.04080783 25.00041636 26 27 C25 28 25 28 22.93359375 28.09765625 C22.10988281 28.08605469 21.28617188 28.07445313 20.4375 28.0625 C19.61121094 28.05347656 18.78492188 28.04445313 17.93359375 28.03515625 C16.97646484 28.01775391 16.97646484 28.01775391 16 28 C15.67 29.32 15.34 30.64 15 32 C11.32612505 32.85298376 7.9552607 33.10789471 4.1875 33.0625 C3.21167969 33.05347656 2.23585938 33.04445312 1.23046875 33.03515625 C0.12638672 33.01775391 0.12638672 33.01775391 -1 33 C-1.33 32.01 -1.66 31.02 -2 30 C-4.14579161 31.55901182 -4.14579161 31.55901182 -6 34 C-6.33417929 37.6675213 -6.33417929 37.6675213 -6 41 C-6.33 40.01 -6.66 39.02 -7 38 C-7.66 38 -8.32 38 -9 38 C-9.33 39.32 -9.66 40.64 -10 42 C-10.66 42 -11.32 42 -12 42 C-11.34 40.02 -10.68 38.04 -10 36 C-12.475 36.495 -12.475 36.495 -15 37 C-14.34 36.01 -13.68 35.02 -13 34 C-11.7625 33.814375 -11.7625 33.814375 -10.5 33.625 C-9.675 33.41875 -8.85 33.2125 -8 33 C-6.75285597 30.59047977 -6.75285597 30.59047977 -6 28 C-5.34 27.34 -4.68 26.68 -4 26 C-5.24176695 25.29773859 -6.49385599 24.61370891 -7.75 23.9375 C-8.44609375 23.55464844 -9.1421875 23.17179687 -9.859375 22.77734375 C-13.84671496 21.32938636 -17.25318305 23.43882627 -21 25 C-20.34 24.01 -19.68 23.02 -19 22 C-18.34 22 -17.68 22 -17 22 C-17 21.34 -17 20.68 -17 20 C-19.31 20.33 -21.62 20.66 -24 21 C-23.01 17.535 -23.01 17.535 -22 14 C-21.01 14.33 -20.02 14.66 -19 15 C-19 13.35 -19 11.7 -19 10 C-17.68 11.32 -16.36 12.64 -15 14 C-14.67 13.34 -14.34 12.68 -14 12 C-13.34 12 -12.68 12 -12 12 C-11.67 12.66 -11.34 13.32 -11 14 C-10.38125 13.835 -9.7625 13.67 -9.125 13.5 C-6.10328923 12.78900923 -3.09830138 13 0 13 C-0.33 14.65 -0.66 16.3 -1 18 C-0.01 17.01 0.98 16.02 2 15 C1.67 14.67 1.34 14.34 1 14 C0.95936168 12.33382885 0.957279 10.66611905 1 9 C0.01 8.67 -0.98 8.34 -2 8 C-2.125 5.125 -2.125 5.125 -2 2 C-1.34 1.34 -0.68 0.68 0 0 Z " fill="#DAB599" transform="translate(74,7)"/>
<path d="M0 0 C2.79259386 0.30354281 5.41174668 0.84428589 8.125 1.5625 C10.32833327 2.15148641 10.32833327 2.15148641 14 2 C14.99 3.485 14.99 3.485 16 5 C17.155 5 18.31 5 19.5 5 C20.655 5 21.81 5 23 5 C25 8 25 8 25 12 C24.34 12 23.68 12 23 12 C23 12.66 23 13.32 23 14 C21.68 14 20.36 14 19 14 C18.34 15.32 17.68 16.64 17 18 C16.01 18 15.02 18 14 18 C14 18.66 14 19.32 14 20 C14.66 20 15.32 20 16 20 C15.67 21.65 15.34 23.3 15 25 C13.02 25.33 11.04 25.66 9 26 C9 24.02 9 22.04 9 20 C7.68 20.33 6.36 20.66 5 21 C5 22.32 5 23.64 5 25 C3.02 24.67 1.04 24.34 -1 24 C-1 23.01 -1 22.02 -1 21 C-2.32 21 -3.64 21 -5 21 C-5 18.36 -5 15.72 -5 13 C-3.35 13 -1.7 13 0 13 C-0.33 14.65 -0.66 16.3 -1 18 C-0.01 17.01 0.98 16.02 2 15 C1.67 14.67 1.34 14.34 1 14 C0.95936168 12.33382885 0.957279 10.66611905 1 9 C0.01 8.67 -0.98 8.34 -2 8 C-2.125 5.125 -2.125 5.125 -2 2 C-1.34 1.34 -0.68 0.68 0 0 Z " fill="#A39B93" transform="translate(74,7)"/>
<path d="M0 0 C0.33 0.66 0.66 1.32 1 2 C1.99 2 2.98 2 4 2 C4 2.66 4 3.32 4 4 C3.34 4.66 2.68 5.32 2 6 C2.66 6.66 3.32 7.32 4 8 C2.68 8 1.36 8 0 8 C1.32 8.99 2.64 9.98 4 11 C3.67 12.65 3.34 14.3 3 16 C-0.75 17.125 -0.75 17.125 -3 16 C-2.67 16.99 -2.34 17.98 -2 19 C-2.66 19.33 -3.32 19.66 -4 20 C-4.33 20.99 -4.66 21.98 -5 23 C-6.9375 22.375 -6.9375 22.375 -9 21 C-9.144375 20.01 -9.28875 19.02 -9.4375 18 C-9.623125 17.01 -9.80875 16.02 -10 15 C-12.46255685 13.54708727 -12.46255685 13.54708727 -15 13 C-15 13.66 -15 14.32 -15 15 C-15.66 15 -16.32 15 -17 15 C-17.33 15.99 -17.66 16.98 -18 18 C-18.66 18 -19.32 18 -20 18 C-20.33 16.68 -20.66 15.36 -21 14 C-21.33 14.99 -21.66 15.98 -22 17 C-24.0625 17.6875 -24.0625 17.6875 -26 18 C-27.60355101 14.49223216 -28.22036864 11.85645121 -28 8 C-24.535 7.505 -24.535 7.505 -21 7 C-21.33 5.02 -21.66 3.04 -22 1 C-17.428721 1.54855348 -13.32564205 2.41744803 -9 4 C-9 4.99 -9 5.98 -9 7 C-7.35 7 -5.7 7 -4 7 C-4 5.02 -4 3.04 -4 1 C-3.34 1.66 -2.68 2.32 -2 3 C-1.34 2.01 -0.68 1.02 0 0 Z " fill="#6A7160" transform="translate(28,11)"/>
<path d="M0 0 C4.571279 0.54855348 8.67435795 1.41744803 13 3 C13 3.99 13 4.98 13 6 C10.03 5.67 7.06 5.34 4 5 C4.66 6.32 5.32 7.64 6 9 C8.31 9 10.62 9 13 9 C13 10.65 13 12.3 13 14 C11.02 13.34 9.04 12.68 7 12 C7 12.66 7 13.32 7 14 C6.34 14 5.68 14 5 14 C4.67 14.99 4.34 15.98 4 17 C3.34 17 2.68 17 2 17 C1.67 15.68 1.34 14.36 1 13 C0.67 13.99 0.34 14.98 0 16 C-2.0625 16.6875 -2.0625 16.6875 -4 17 C-5.60355101 13.49223216 -6.22036864 10.85645121 -6 7 C-2.535 6.505 -2.535 6.505 1 6 C0.67 4.02 0.34 2.04 0 0 Z " fill="#ADA399" transform="translate(6,12)"/>
<path d="M0 0 C1.65 1.32 3.3 2.64 5 4 C5.66 3.67 6.32 3.34 7 3 C7 5.31 7 7.62 7 10 C6.01 10.495 6.01 10.495 5 11 C5.33 11.66 5.66 12.32 6 13 C4.35 13.33 2.7 13.66 1 14 C1 15.65 1 17.3 1 19 C-0.98 18.67 -2.96 18.34 -5 18 C-5 17.01 -5 16.02 -5 15 C-6.32 15 -7.64 15 -9 15 C-9 12.36 -9 9.72 -9 7 C-7.35 7 -5.7 7 -4 7 C-4.33 8.65 -4.66 10.3 -5 12 C-4.01 11.01 -3.02 10.02 -2 9 C-2.33 8.67 -2.66 8.34 -3 8 C-3.25 5.0625 -3.25 5.0625 -3 2 C-2.01 1.34 -1.02 0.68 0 0 Z " fill="#948D87" transform="translate(78,13)"/>
<path d="M0 0 C0.04254356 1.99954746 0.04080783 4.00041636 0 6 C-1 7 -1 7 -3.06640625 7.09765625 C-3.89011719 7.08605469 -4.71382812 7.07445312 -5.5625 7.0625 C-6.38878906 7.05347656 -7.21507813 7.04445313 -8.06640625 7.03515625 C-8.70449219 7.02355469 -9.34257813 7.01195312 -10 7 C-10.33 8.32 -10.66 9.64 -11 11 C-15.38454679 12.50718796 -18.19096247 11.48092612 -22.328125 9.88671875 C-24 9 -24 9 -25 7 C-25.99 6.34 -26.98 5.68 -28 5 C-25.525 5.495 -25.525 5.495 -23 6 C-23 6.66 -23 7.32 -23 8 C-17.19126022 7.41785001 -17.19126022 7.41785001 -12 5 C-11.525625 4.319375 -11.05125 3.63875 -10.5625 2.9375 C-9 1 -9 1 -6.5625 0.25 C-4 0 -4 0 0 0 Z " fill="#E3B89A" transform="translate(100,28)"/>
<path d="M0 0 C1.32 1.32 2.64 2.64 4 4 C4.33 3.34 4.66 2.68 5 2 C5.66 2 6.32 2 7 2 C7.33 4.31 7.66 6.62 8 9 C9.65 9 11.3 9 13 9 C13 9.99 13 10.98 13 12 C12.09507813 11.94779297 12.09507813 11.94779297 11.171875 11.89453125 C6.07474512 11.6485551 6.07474512 11.6485551 1.4375 13.5 C0.963125 13.995 0.48875 14.49 0 15 C-0.66 14.67 -1.32 14.34 -2 14 C-0.68 13.34 0.64 12.68 2 12 C2 11.34 2 10.68 2 10 C-0.31 10.33 -2.62 10.66 -5 11 C-4.34 8.69 -3.68 6.38 -3 4 C-2.01 4.33 -1.02 4.66 0 5 C0 3.35 0 1.7 0 0 Z " fill="#ADAA7D" transform="translate(55,17)"/>
<path d="M0 0 C1.65 0 3.3 0 5 0 C4.67 1.65 4.34 3.3 4 5 C4.99 4.34 5.98 3.68 7 3 C9.6875 3.375 9.6875 3.375 12 4 C12 4.66 12 5.32 12 6 C11.34 6.66 10.68 7.32 10 8 C10 9.32 10 10.64 10 12 C7.03 11.505 7.03 11.505 4 11 C4 10.01 4 9.02 4 8 C2.68 8 1.36 8 0 8 C0 5.36 0 2.72 0 0 Z " fill="#837E78" transform="translate(69,20)"/>
<path d="M0 0 C0.33 0.66 0.66 1.32 1 2 C1.99 2 2.98 2 4 2 C4 2.66 4 3.32 4 4 C3.34 4.66 2.68 5.32 2 6 C2.66 6.66 3.32 7.32 4 8 C2.35 7.67 0.7 7.34 -1 7 C-1.12375 7.5775 -1.2475 8.155 -1.375 8.75 C-2.00648824 11.02335767 -2.88858191 12.9253529 -4 15 C-5.32 14.34 -6.64 13.68 -8 13 C-8 11.68 -8 10.36 -8 9 C-9.32 8.67 -10.64 8.34 -12 8 C-9.36 7.67 -6.72 7.34 -4 7 C-4 5.02 -4 3.04 -4 1 C-3.34 1.66 -2.68 2.32 -2 3 C-1.34 2.01 -0.68 1.02 0 0 Z " fill="#CCD0AC" transform="translate(28,11)"/>
<path d="M0 0 C3 0.1875 3 0.1875 6 1 C6.66 1.99 7.32 2.98 8 4 C6.90554162 4.86657116 5.79902219 5.71792724 4.6875 6.5625 C4.07261719 7.03816406 3.45773438 7.51382812 2.82421875 8.00390625 C2.22222656 8.33261719 1.62023437 8.66132813 1 9 C0.01 8.67 -0.98 8.34 -2 8 C-2.125 5.125 -2.125 5.125 -2 2 C-1.34 1.34 -0.68 0.68 0 0 Z " fill="#ADA49F" transform="translate(74,7)"/>
<path d="M0 0 C2 3 2 3 2 7 C1.34 7 0.68 7 0 7 C0 7.66 0 8.32 0 9 C-3.875 8.125 -3.875 8.125 -5 7 C-5.04063832 5.33382885 -5.042721 3.66611905 -5 2 C-5.66 1.67 -6.32 1.34 -7 1 C-4.46578263 -0.26710868 -2.80561762 -0.28056176 0 0 Z " fill="#AFA4A0" transform="translate(97,12)"/>
<path d="M0 0 C2.475 0.495 2.475 0.495 5 1 C5 1.66 5 2.32 5 3 C9.02992782 2.44687265 13.02022924 1.8441938 17 1 C17.625 2.875 17.625 2.875 18 5 C17.34 5.66 16.68 6.32 16 7 C13.8125 6.75 13.8125 6.75 11 6 C9.7625 5.690625 8.525 5.38125 7.25 5.0625 C6.1775 4.711875 5.105 4.36125 4 4 C3.67 3.34 3.34 2.68 3 2 C2.01 1.34 1.02 0.68 0 0 Z " fill="#B69A9D" transform="translate(72,33)"/>
<path d="M0 0 C1.5 1.0625 1.5 1.0625 3 3 C3.1875 6.6875 3.1875 6.6875 3 10 C0.36 10.33 -2.28 10.66 -5 11 C-4.34 8.69 -3.68 6.38 -3 4 C-2.01 4.33 -1.02 4.66 0 5 C0 3.35 0 1.7 0 0 Z " fill="#738259" transform="translate(55,17)"/>
<path d="M0 0 C4.571279 0.54855348 8.67435795 1.41744803 13 3 C13 3.99 13 4.98 13 6 C12.154375 5.855625 11.30875 5.71125 10.4375 5.5625 C6.96406851 4.9941203 3.48554338 4.48797607 0 4 C0 2.68 0 1.36 0 0 Z " fill="#BAA2A4" transform="translate(6,12)"/>
<path d="M0 0 C4.36084875 0.50707544 7.5032476 1.28030369 11 4 C12.3125 6.6875 12.3125 6.6875 13 9 C12.34 9 11.68 9 11 9 C10.67 9.66 10.34 10.32 10 11 C10 9.02 10 7.04 10 5 C7.69 5.33 5.38 5.66 3 6 C0 1.125 0 1.125 0 0 Z " fill="#82786F" transform="translate(9,16)"/>
<path d="M0 0 C3.69230769 0.69230769 3.69230769 0.69230769 5 2 C5.04080783 3.99958364 5.04254356 6.00045254 5 8 C3.02 7.34 1.04 6.68 -1 6 C-1.042721 4.33388095 -1.04063832 2.66617115 -1 1 C-0.67 0.67 -0.34 0.34 0 0 Z " fill="#D4D4D4" transform="translate(64,20)"/>
<path d="M0 0 C3.625 -0.1875 3.625 -0.1875 7 0 C7 2.31 7 4.62 7 7 C6.67 6.01 6.34 5.02 6 4 C5.34 4 4.68 4 4 4 C3.67 5.32 3.34 6.64 3 8 C2.34 8 1.68 8 1 8 C1.66 6.02 2.32 4.04 3 2 C1.35 2.33 -0.3 2.66 -2 3 C-1.34 2.01 -0.68 1.02 0 0 Z " fill="#ABCF73" transform="translate(61,41)"/>
<path d="M0 0 C2.4375 0.375 2.4375 0.375 5 1 C5.33 1.66 5.66 2.32 6 3 C9.02934491 3.65772428 9.02934491 3.65772428 12 4 C12 4.33 12 4.66 12 5 C8.7 5.33 5.4 5.66 2 6 C0 3 0 3 0 0 Z " fill="#CAA9B0" transform="translate(71,34)"/>
<path d="M0 0 C0.99 0.33 1.98 0.66 3 1 C3.33 3.64 3.66 6.28 4 9 C1.525 8.01 1.525 8.01 -1 7 C-0.67 4.69 -0.34 2.38 0 0 Z " fill="#C9D8A6" transform="translate(20,25)"/>
<path d="M0 0 C2.125 0.9375 2.125 0.9375 4 2 C3.67 3.98 3.34 5.96 3 8 C0.525 7.01 0.525 7.01 -2 6 C-2 5.34 -2 4.68 -2 4 C-1.34 4 -0.68 4 0 4 C0 3.34 0 2.68 0 2 C-0.66 1.67 -1.32 1.34 -2 1 C-1.34 0.67 -0.68 0.34 0 0 Z " fill="#CAD4BA" transform="translate(49,19)"/>
<path d="M0 0 C0.99 0.33 1.98 0.66 3 1 C3 1.66 3 2.32 3 3 C4.65 3 6.3 3 8 3 C4.86501708 4.85776765 2.62528568 5.20140476 -1 5 C-1.33 4.01 -1.66 3.02 -2 2 C-1.34 1.34 -0.68 0.68 0 0 Z " fill="#DCB092" transform="translate(90,30)"/>
<path d="M0 0 C0.66 0 1.32 0 2 0 C2.33 2.31 2.66 4.62 3 7 C1.68 7.33 0.36 7.66 -1 8 C-1.125 2.25 -1.125 2.25 0 0 Z " fill="#758453" transform="translate(60,19)"/>
<path d="M0 0 C2.50037734 2.17424117 3.43628586 3.73045798 4 7 C3.21625 6.814375 2.4325 6.62875 1.625 6.4375 C-0.97089775 5.74037734 -0.97089775 5.74037734 -3 7 C-1.125 1.125 -1.125 1.125 0 0 Z " fill="#6A6A6A" transform="translate(35,21)"/>
<path d="M0 0 C1.4606285 2.64738916 2 3.89448334 2 7 C1.34 7.66 0.68 8.32 0 9 C-2.125 8.625 -2.125 8.625 -4 8 C-3.01 8 -2.02 8 -1 8 C-1 7.34 -1 6.68 -1 6 C-1.99 5.67 -2.98 5.34 -4 5 C-2.68 5 -1.36 5 0 5 C0 3.35 0 1.7 0 0 Z " fill="#F2F2F2" transform="translate(74,17)"/>
<path d="M0 0 C1.98 0 3.96 0 6 0 C6 1.65 6 3.3 6 5 C3.69 4.01 1.38 3.02 -1 2 C-0.67 1.34 -0.34 0.68 0 0 Z " fill="#E1BCA3" transform="translate(13,21)"/>
<path d="M0 0 C1.65 0.33 3.3 0.66 5 1 C4.67 2.32 4.34 3.64 4 5 C2.68 4.34 1.36 3.68 0 3 C0 2.01 0 1.02 0 0 Z " fill="#DBD8D5" transform="translate(79,26)"/>
<path d="M0 0 C1.32 0 2.64 0 4 0 C3.67 1.32 3.34 2.64 3 4 C1.68 4 0.36 4 -1 4 C-0.67 2.68 -0.34 1.36 0 0 Z " fill="#E79BB8" transform="translate(75,10)"/>
<path d="M0 0 C1.32 0 2.64 0 4 0 C4.04254356 1.99954746 4.04080783 4.00041636 4 6 C3 7 3 7 0.4375 7.0625 C-0.7690625 7.0315625 -0.7690625 7.0315625 -2 7 C-0.68 6.34 0.64 5.68 2 5 C2 4.34 2 3.68 2 3 C1.34 2.67 0.68 2.34 0 2 C0 1.34 0 0.68 0 0 Z " fill="#E6C6B0" transform="translate(96,28)"/>
<path d="M0 0 C2.625 0.375 2.625 0.375 5 1 C5 1.66 5 2.32 5 3 C3.1875 3.625 3.1875 3.625 1 4 C0.01 3.34 -0.98 2.68 -2 2 C-1.34 1.34 -0.68 0.68 0 0 Z " fill="#ACA59E" transform="translate(76,23)"/>
<path d="M0 0 C2.475 0.495 2.475 0.495 5 1 C4.67 1.99 4.34 2.98 4 4 C2.68 4 1.36 4 0 4 C0 2.68 0 1.36 0 0 Z " fill="#F4F4F4" transform="translate(26,22)"/>
<path d="M0 0 C2.31 0 4.62 0 7 0 C7 0.66 7 1.32 7 2 C2.25 3.125 2.25 3.125 0 2 C0 1.34 0 0.68 0 0 Z " fill="#D4C8BE" transform="translate(77,34)"/>
<path d="M0 0 C-0.99 0.495 -0.99 0.495 -2 1 C-2 1.66 -2 2.32 -2 3 C-4.31 2.34 -6.62 1.68 -9 1 C-9 0.67 -9 0.34 -9 0 C-5.62182575 -0.84454356 -3.32534757 -1.10844919 0 0 Z " fill="#E6C6B0" transform="translate(72,29)"/>
<path d="M0 0 C0.99 0 1.98 0 3 0 C3.33 1.32 3.66 2.64 4 4 C2.68 4.33 1.36 4.66 0 5 C0 3.35 0 1.7 0 0 Z " fill="#E99CB9" transform="translate(92,14)"/>
</svg>
